<?xml version="1.0" encoding="UTF-8" standalone="no"?>
<!-- Generator: Adobe Illustrator 17.1.0, SVG Export Plug-In . SVG Version: 6.00 Build 0)  -->

<svg
   version="1.1"
   x="0px"
   y="0px"
   viewBox="0 0 670 500"
   style="enable-background:new 0 0 670 500;"
   width="670"
   height="500"
   xml:space="preserve"
   id="svg74"
   sodipodi:docname="Transformer_Flux.svg"
   inkscape:version="1.4 (86a8ad7, 2024-10-11)"
   xmlns:inkscape="http://www.inkscape.org/namespaces/inkscape"
   xmlns:sodipodi="http://sodipodi.sourceforge.net/DTD/sodipodi-0.dtd"
   xmlns="http://www.w3.org/2000/svg"
   xmlns:svg="http://www.w3.org/2000/svg"><defs
   id="defs74" /><sodipodi:namedview
   id="namedview74"
   pagecolor="#ffffff"
   bordercolor="#000000"
   borderopacity="0.25"
   inkscape:showpageshadow="2"
   inkscape:pageopacity="0.0"
   inkscape:pagecheckerboard="0"
   inkscape:deskcolor="#d1d1d1"
   inkscape:zoom="1.091"
   inkscape:cx="44.912924"
   inkscape:cy="342.34647"
   inkscape:window-width="2560"
   inkscape:window-height="1351"
   inkscape:window-x="2551"
   inkscape:window-y="-9"
   inkscape:window-maximized="1"
   inkscape:current-layer="svg74" />
<style
   type="text/css"
   id="style1">
	.st0{fill:#DADADA;stroke:#000;}
	.st1{fill:none;stroke:#000;}
	.st2{fill:#EDEDED;stroke:#000;}
	.st3{fill:none;stroke:#575756;stroke-width:2;stroke-dasharray:12,6;}
	.st4{fill:none;stroke:#000;stroke-width:2;}
	.st4a{fill:none;stroke:#000;stroke-width:1;}
	.st5{fill:none;stroke:#575756;stroke-width:2;stroke-dasharray:12,6;}
	.st6{fill:#575756;}
	.st7{font-family:'Liberation Sans','Arial';}
	.st8{font-size:30px;}
	.st9{font-size:21px;}
	.st10{font-size:24px;}
</style>
<g
   id="diagram"
   inkscape:export-filename="trans_flux.pdf"
   inkscape:export-xdpi="96"
   inkscape:export-ydpi="96">
	<rect
   x="0"
   y="0"
   width="670"
   height="500"
   fill="#fff"
   id="rect1" />
	<g
   id="body">
		<path
   class="st0"
   d="M573.4,470.7c0,4.5-3.7,8.2-8.2,8.2H100.7c-4.5,0-8.2-3.7-8.2-8.2V102.6c0-4.5,3.7-8.2,8.2-8.2h464.5    c4.5,0,8.2,3.7,8.2,8.2V470.7z"
   id="path1" />
		<path
   class="st1"
   d="M560,450.6c0,8.4-6.8,15.1-15.1,15.1H121.2c-8.4,0-15.1-6.8-15.1-15.1V122.7c0-8.4,6.8-15.1,15.1-15.1h423.6    c8.4,0,15.1,6.8,15.1,15.1V450.6z"
   id="path2" />
		<path
   class="st1"
   d="M135,454.7c-9.9,0-17.9-8-17.9-17.9V136.5c0-9.9,8-17.9,17.9-17.9h396c9.9,0,17.9,8,17.9,17.9v300.3    c0,9.9-8,17.9-17.9,17.9H135z"
   id="path3" />
		<path
   class="st1"
   d="M148.1,442.7c-10.5,0-19.1-8.5-19.1-19.1v-274c0-10.5,8.5-19.1,19.1-19.1h369.7c10.5,0,19.1,8.5,19.1,19.1    v274c0,10.5-8.5,19.1-19.1,19.1H148.1z"
   id="path4" />
		<path
   class="st1"
   d="M160.7,430.7c-10.9,0-19.7-8.8-19.7-19.7V162.2c0-10.9,8.8-19.7,19.7-19.7h344.6c10.9,0,19.6,8.8,19.6,19.6    v248.9c0,10.9-8.8,19.6-19.6,19.6H160.7z"
   id="path5" />
		<path
   class="st2"
   d="M477.3,375.9c0,4.1-3.4,7.5-7.5,7.5H196.2c-4.1,0-7.5-3.4-7.5-7.5V197.4c0-4.1,3.4-7.5,7.5-7.5h273.7    c4.1,0,7.5,3.4,7.5,7.5V375.9z"
   id="path6" />
	</g>
	<g
   id="R_Hatch">
		<path
   class="st3"
   d="M282.3,395c0,6.6-5.4,12-12,12H175c-6.6,0-12-5.4-12-12V178.3c0-6.6,5.4-12,12-12h95.3c6.6,0,12,5.4,12,12    V395z"
   id="path7" />
	</g>
	<g
   id="L_Hatch">
		<path
   class="st3"
   d="M383.7,395c0,6.6,5.4,12,12,12H491c6.6,0,12-5.4,12-12V178.3c0-6.6-5.4-12-12-12h-95.3c-6.6,0-12,5.4-12,12    V395z"
   id="path8" />
	</g>
	<g
   id="L_winding">
		<path
   class="st4"
   d="M22.4,208.6h172.8c3.5,0,6.3,2.6,6.3,5.8l0,0c0,3.2-2.8,5.8-6.3,5.8h-6.5"
   id="path9" />
		<path
   class="st4"
   d="M70.6,232.8"
   id="path10" />
		<path
   class="st4"
   d="M92.6,221.2h-4.1c-3.5,0-6.3,2.6-6.3,5.8l0,0c0,3.2,2.8,5.8,6.3,5.8h106.7c3.5,0,6.3,2.6,6.3,5.8l0,0    c0,3.2-2.8,5.8-6.3,5.8h-6.5"
   id="path11" />
		<path
   class="st4"
   d="M92.6,245.4h-4.1c-3.5,0-6.3,2.6-6.3,5.8l0,0c0,3.2,2.8,5.8,6.3,5.8h106.7c3.5,0,6.3,2.6,6.3,5.8l0,0    c0,3.2-2.8,5.8-6.3,5.8h-6.5"
   id="path12" />
		<path
   class="st4"
   d="M92.6,269.6h-4.1c-3.5,0-6.3,2.6-6.3,5.8l0,0c0,3.2,2.8,5.8,6.3,5.8h106.7c3.5,0,6.3,2.6,6.3,5.8l0,0    c0,3.2-2.8,5.8-6.3,5.8h-6.5"
   id="path13" />
		<path
   class="st4"
   d="M92.6,293.8h-4.1c-3.5,0-6.3,2.6-6.3,5.8l0,0c0,3.2,2.8,5.8,6.3,5.8h106.7c3.5,0,6.3,2.6,6.3,5.8l0,0    c0,3.2-2.8,5.8-6.3,5.8h-6.5"
   id="path14" />
		<path
   class="st4"
   d="M92.6,317.9h-4.1c-3.5,0-6.3,2.6-6.3,5.8l0,0c0,3.2,2.8,5.8,6.3,5.8h106.7c3.5,0,6.3,2.6,6.3,5.8l0,0    c0,3.2-2.8,5.8-6.3,5.8h-6.5"
   id="path15" />
		<path
   class="st4"
   d="M92.6,342.1h-4.1c-3.5,0-6.3,2.6-6.3,5.8l0,0c0,3.2,2.8,5.8,6.3,5.8h106.7c3.5,0,6.3,2.6,6.3,5.8l0,0    c0,3.2-2.8,5.8-6.3,5.8h-6.5"
   id="path16" />
		<line
   class="st4"
   x1="92.6"
   y1="365.2"
   x2="22.3"
   y2="365.2"
   id="line16" />
		<g
   id="g17">
			<g
   id="g16">
				<polygon
   points="51.2,214.4 72.8,208.6 51.2,202.8     "
   id="polygon16" />
			</g>
		</g>
	</g>
	<g
   id="g20">
		<g
   id="g19">
			<line
   class="st4"
   x1="315.8"
   y1="107.6"
   x2="318.5"
   y2="107.6"
   id="line17" />
			<g
   id="g18">
				<polygon
   points="315.7,111.6 330.9,107.6 315.7,103.5     "
   id="polygon17" />
			</g>
		</g>
	</g>
	<g
   id="g23">
		<g
   id="g22">
			<line
   class="st5"
   x1="282.3"
   y1="260.7"
   x2="282.3"
   y2="263.3"
   id="line20" />
			<g
   id="g21">
				<polygon
   class="st6"
   points="278.3,260.5 282.3,275.7 286.4,260.5     "
   id="polygon20" />
			</g>
		</g>
	</g>
	<g
   id="g26">
		<g
   id="g25">
			<line
   class="st5"
   x1="163"
   y1="301.1"
   x2="163"
   y2="298.5"
   id="line23" />
			<g
   id="g24">
				<polygon
   class="st6"
   points="167.1,301.3 163,286.1 158.9,301.3     "
   id="polygon23" />
			</g>
		</g>
	</g>
	<g
   id="g29">
		<g
   id="g28">
			<line
   class="st5"
   x1="503"
   y1="301.1"
   x2="503"
   y2="298.5"
   id="line26" />
			<g
   id="g27">
				<polygon
   class="st6"
   points="507.1,301.3 503,286.1 498.9,301.3     "
   id="polygon26" />
			</g>
		</g>
	</g>
	<g
   id="g32">
		<g
   id="g31">
			<line
   class="st5"
   x1="383.7"
   y1="260.7"
   x2="383.7"
   y2="263.3"
   id="line29" />
			<g
   id="g30">
				<polygon
   class="st6"
   points="379.6,260.5 383.7,275.7 387.7,260.5     "
   id="polygon29" />
			</g>
		</g>
	</g>
	<g
   id="g35">
		<g
   id="g34">
			<line
   class="st4"
   x1="315.8"
   y1="118.6"
   x2="318.5"
   y2="118.6"
   id="line32" />
			<g
   id="g33">
				<polygon
   points="315.7,122.6 330.9,118.6 315.7,114.5     "
   id="polygon32" />
			</g>
		</g>
	</g>
	<g
   id="g38">
		<g
   id="g37">
			<line
   class="st4"
   x1="315.8"
   y1="130.6"
   x2="318.5"
   y2="130.6"
   id="line35" />
			<g
   id="g36">
				<polygon
   points="315.7,134.6 330.9,130.6 315.7,126.5     "
   id="polygon35" />
			</g>
		</g>
	</g>
	<g
   id="g41">
		<g
   id="g40">
			<line
   class="st4"
   x1="315.8"
   y1="142.6"
   x2="318.5"
   y2="142.6"
   id="line38" />
			<g
   id="g39">
				<polygon
   points="315.7,146.6 330.9,142.6 315.7,138.5     "
   id="polygon38" />
			</g>
		</g>
	</g>
	<g
   id="R_winding">
		<path
   class="st4a"
   d="M643.7,208.6H470.8c-3.5,0-6.3,2.6-6.3,5.8l0,0c0,3.2,2.8,5.8,6.3,5.8h6.5"
   id="path41" />
		<path
   class="st4a"
   d="M595.5,232.8"
   id="path42" />
		<path
   class="st4a"
   d="M573.4,221.2h4.1c3.5,0,6.3,2.6,6.3,5.8l0,0c0,3.2-2.8,5.8-6.3,5.8H470.8c-3.5,0-6.3,2.6-6.3,5.8l0,0    c0,3.2,2.8,5.8,6.3,5.8h6.5"
   id="path43" />
		<path
   class="st4a"
   d="M573.4,245.4h4.1c3.5,0,6.3,2.6,6.3,5.8l0,0c0,3.2-2.8,5.8-6.3,5.8H470.8c-3.5,0-6.3,2.6-6.3,5.8l0,0    c0,3.2,2.8,5.8,6.3,5.8h6.5"
   id="path44" />
		<path
   class="st4a"
   d="M573.4,269.6h4.1c3.5,0,6.3,2.6,6.3,5.8l0,0c0,3.2-2.8,5.8-6.3,5.8H470.8c-3.5,0-6.3,2.6-6.3,5.8l0,0    c0,3.2,2.8,5.8,6.3,5.8h6.5"
   id="path45" />
		<path
   class="st4a"
   d="M573.4,293.8h4.1c3.5,0,6.3,2.6,6.3,5.8l0,0c0,3.2-2.8,5.8-6.3,5.8H470.8c-3.5,0-6.3,2.6-6.3,5.8l0,0    c0,3.2,2.8,5.8,6.3,5.8h6.5"
   id="path46" />
		<path
   class="st4a"
   d="M573.4,317.9h4.1c3.5,0,6.3,2.6,6.3,5.8l0,0c0,3.2-2.8,5.8-6.3,5.8H470.8c-3.5,0-6.3,2.6-6.3,5.8l0,0    c0,3.2,2.8,5.8,6.3,5.8h6.5"
   id="path47" />
		<path
   class="st4a"
   d="M573.4,342.1h4.1c3.5,0,6.3,2.6,6.3,5.8l0,0c0,3.2-2.8,5.8-6.3,5.8H470.8c-3.5,0-6.3,2.6-6.3,5.8l0,0    c0,3.2,2.8,5.8,6.3,5.8h6.5"
   id="path48" />
		<line
   class="st4a"
   x1="573.4"
   y1="365.2"
   x2="643.7"
   y2="365.2"
   id="line48" />
		<g
   id="g49">
			<g
   id="g48">
				<polygon
   points="614.9,202.8 593.2,208.6 614.9,214.4     "
   id="polygon48" />
			</g>
		</g>
	</g>
	<g
   id="g52">
		<g
   id="g51">
			<line
   class="st4"
   x1="353.1"
   y1="430.7"
   x2="350.8"
   y2="430.7"
   id="line49" />
			<g
   id="g50">
				<polygon
   points="353.6,426.6 338.4,430.7 353.6,434.8     "
   id="polygon49" />
			</g>
		</g>
	</g>
	<g
   id="g55">
		<g
   id="g54">
			<line
   class="st4"
   x1="353.1"
   y1="442.7"
   x2="350.8"
   y2="442.7"
   id="line52" />
			<g
   id="g53">
				<polygon
   points="353.6,438.6 338.4,442.7 353.6,446.8     "
   id="polygon52" />
			</g>
		</g>
	</g>
	<g
   id="g58">
		<g
   id="g57">
			<line
   class="st4"
   x1="353.1"
   y1="454.7"
   x2="350.8"
   y2="454.7"
   id="line55" />
			<g
   id="g56">
				<polygon
   points="353.6,450.6 338.4,454.7 353.6,458.8     "
   id="polygon55" />
			</g>
		</g>
	</g>
	<g
   id="g61">
		<g
   id="g60">
			<line
   class="st4"
   x1="353.1"
   y1="465.7"
   x2="350.8"
   y2="465.7"
   id="line58" />
			<g
   id="g59">
				<polygon
   points="353.6,461.6 338.4,465.7 353.6,469.8     "
   id="polygon58" />
			</g>
		</g>
	</g>
</g>
<g
   id="text">
	<text
   transform="matrix(1 0 0 1 359 136)"
   class="st7 st8"
   id="text61">Main flux</text>
	<text
   transform="matrix(1 0 0 1 226 138)"
   id="text62">
	<tspan
   x="0"
   y="0"
   class="st7 st8"
   id="tspan61">Ф </tspan>
	<tspan
   x="31.1"
   y="0"
   class="st7 st9"
   id="tspan62">12</tspan>
	</text>
	<text
   transform="matrix(1 0 0 1 436 462)"
   id="text64">
	<tspan
   x="0"
   y="0"
   class="st7 st8"
   id="tspan63">Ф </tspan>
	<tspan
   x="31.1"
   y="0"
   class="st7 st9"
   id="tspan64">21</tspan>
	</text>
	<text
   transform="matrix(1 0 0 1 256 246)"
   id="text66">
	<tspan
   x="0"
   y="0"
   class="st7 st8"
   id="tspan65">Ф </tspan>
	<tspan
   x="31.1"
   y="0"
   class="st7 st9"
   id="tspan66">σ 1</tspan>
	</text>
	<text
   transform="matrix(1 0 0 1 357 246)"
   id="text68">
	<tspan
   x="0"
   y="0"
   class="st7 st8"
   id="tspan67">Ф </tspan>
	<tspan
   x="31.1"
   y="0"
   class="st7 st9"
   id="tspan68">σ 2</tspan>
	</text>
	<text
   transform="matrix(1 0 0 1 287 335)"
   id="text70">
	<tspan
   x="0"
   y="0"
   class="st7 st10"
   id="tspan69">Leakage</tspan>
	<tspan
   x="27.4"
   y="28.8"
   class="st7 st10"
   id="tspan70">flux</tspan>
	</text>
	<text
   transform="matrix(1 0 0 1 71 45)"
   id="text72">
	<tspan
   x="0"
   y="0"
   class="st7 st10"
   id="tspan71">Primary</tspan>
	<tspan
   x="0.6"
   y="28.8"
   class="st7 st10"
   id="tspan72">winding</tspan>
	</text>
	<text
   transform="matrix(1 0 0 1 496 45)"
   id="text74">
	<tspan
   x="0"
   y="0"
   class="st7 st10"
   id="tspan73">Secondary</tspan>
	<tspan
   x="16.7"
   y="28.8"
   class="st7 st10"
   id="tspan74">winding</tspan>
	</text>
</g>
</svg>
